<?xml version="1.0" encoding="UTF-8" standalone="no"?><svg xmlns="http://www.w3.org/2000/svg" xmlns:xlink="http://www.w3.org/1999/xlink" contentScriptType="application/ecmascript" contentStyleType="text/css" height="226px" preserveAspectRatio="none" style="width:180px;height:226px;" version="1.1" viewBox="0 0 180 226" width="180px" zoomAndPan="magnify"><defs><filter height="300%" id="f12h3xcvkmxnu7" width="300%" x="-1" y="-1"><feGaussianBlur result="blurOut" stdDeviation="2.0"/><feColorMatrix in="blurOut" result="blurOut2" type="matrix" values="0 0 0 0 0 0 0 0 0 0 0 0 0 0 0 0 0 0 .4 0"/><feOffset dx="4.0" dy="4.0" in="blurOut2" result="blurOut3"/><feBlend in="SourceGraphic" in2="blurOut3" mode="normal"/></filter></defs><g><!--class Stage--><rect fill="#FEFECE" filter="url(#f12h3xcvkmxnu7)" height="48" id="Stage" style="stroke: #A80036; stroke-width: 1.5;" width="63" x="56" y="8"/><ellipse cx="71" cy="24" fill="#ADD1B2" rx="11" ry="11" style="stroke: #A80036; stroke-width: 1.0;"/><path d="M73.4731,30.1431 Q72.8921,30.4419 72.2529,30.5913 Q71.6138,30.7407 70.9082,30.7407 Q68.4014,30.7407 67.0815,29.0889 Q65.7617,27.437 65.7617,24.3159 Q65.7617,21.1865 67.0815,19.5347 Q68.4014,17.8828 70.9082,17.8828 Q71.6138,17.8828 72.2612,18.0322 Q72.9087,18.1816 73.4731,18.4805 L73.4731,21.2031 Q72.8423,20.6221 72.2488,20.3523 Q71.6553,20.0825 71.0244,20.0825 Q69.6797,20.0825 68.9949,21.1492 Q68.3101,22.2158 68.3101,24.3159 Q68.3101,26.4077 68.9949,27.4744 Q69.6797,28.541 71.0244,28.541 Q71.6553,28.541 72.2488,28.2712 Q72.8423,28.0015 73.4731,27.4204 Z "/><text fill="#000000" font-family="sans-serif" font-size="12" lengthAdjust="spacingAndGlyphs" textLength="31" x="85" y="28.5352">Stage</text><line style="stroke: #A80036; stroke-width: 1.5;" x1="57" x2="118" y1="40" y2="40"/><line style="stroke: #A80036; stroke-width: 1.5;" x1="57" x2="118" y1="48" y2="48"/><!--class Timeout--><rect fill="#FEFECE" filter="url(#f12h3xcvkmxnu7)" height="99.8203" id="Timeout" style="stroke: #A80036; stroke-width: 1.5;" width="163" x="6" y="116"/><ellipse cx="59.75" cy="132" fill="#ADD1B2" rx="11" ry="11" style="stroke: #A80036; stroke-width: 1.0;"/><path d="M62.2231,138.1431 Q61.6421,138.4419 61.0029,138.5913 Q60.3638,138.7407 59.6582,138.7407 Q57.1514,138.7407 55.8315,137.0889 Q54.5117,135.437 54.5117,132.3159 Q54.5117,129.1865 55.8315,127.5347 Q57.1514,125.8828 59.6582,125.8828 Q60.3638,125.8828 61.0112,126.0322 Q61.6587,126.1816 62.2231,126.4805 L62.2231,129.2031 Q61.5923,128.6221 60.9988,128.3523 Q60.4053,128.0825 59.7744,128.0825 Q58.4297,128.0825 57.7449,129.1492 Q57.0601,130.2158 57.0601,132.3159 Q57.0601,134.4077 57.7449,135.4744 Q58.4297,136.541 59.7744,136.541 Q60.4053,136.541 60.9988,136.2712 Q61.5923,136.0015 62.2231,135.4204 Z "/><text fill="#000000" font-family="sans-serif" font-size="12" lengthAdjust="spacingAndGlyphs" textLength="47" x="80.25" y="136.5352">Timeout</text><line style="stroke: #A80036; stroke-width: 1.5;" x1="7" x2="168" y1="148" y2="148"/><ellipse cx="17" cy="159.9775" fill="none" rx="3" ry="3" style="stroke: #038048; stroke-width: 1.0;"/><text fill="#000000" font-family="sans-serif" font-size="11" lengthAdjust="spacingAndGlyphs" textLength="64" x="26" y="162.6348">stage: Stage</text><line style="stroke: #A80036; stroke-width: 1.5;" x1="7" x2="168" y1="168.9551" y2="168.9551"/><ellipse cx="17" cy="180.9326" fill="#84BE84" rx="3" ry="3" style="stroke: #038048; stroke-width: 1.0;"/><text fill="#000000" font-family="sans-serif" font-size="11" lengthAdjust="spacingAndGlyphs" textLength="137" x="26" y="183.5898">constructor:function(cfg)</text><ellipse cx="17" cy="193.8877" fill="#84BE84" rx="3" ry="3" style="stroke: #038048; stroke-width: 1.0;"/><text fill="#000000" font-family="sans-serif" font-size="11" lengthAdjust="spacingAndGlyphs" textLength="114" x="26" y="196.5449">timeout:function(ctx)</text><ellipse cx="17" cy="206.8428" fill="#84BE84" rx="3" ry="3" style="stroke: #038048; stroke-width: 1.0;"/><text fill="#000000" font-family="sans-serif" font-size="11" lengthAdjust="spacingAndGlyphs" textLength="117" x="26" y="209.5">overdue:function(ctx)</text><!--link Stage to Timeout--><path d="M87.5,76.58 C87.5,89.19 87.5,103.05 87.5,115.97 " fill="none" id="Stage-Timeout" style="stroke: #A80036; stroke-width: 1.0;"/><polygon fill="none" points="80.5,76.3,87.5,56.3,94.5,76.3,80.5,76.3" style="stroke: #A80036; stroke-width: 1.0;"/><!--
@startuml


        Class Stage
        Class Timeout {
            +constructor:function(cfg)
            +timeout:function(ctx)
            +overdue:function(ctx)
            +stage: Stage
        }
         Stage <|- - Timeout

@enduml

PlantUML version 1.2019.06(Sat May 25 02:10:25 JST 2019)
(GPL source distribution)
Java Runtime: Java(TM) SE Runtime Environment
JVM: Java HotSpot(TM) 64-Bit Server VM
Java Version: 11.0.2+9-LTS
Operating System: Mac OS X
OS Version: 10.15.5
Default Encoding: UTF-8
Language: ja
Country: JP
--></g></svg>